<svg xmlns="http://www.w3.org/2000/svg" viewBox="0 0 1200 900" role="img" aria-labelledby="title desc">
  <title id="title">FPV drone placeholder</title>
  <desc id="desc">Neutral technical illustration of an FPV drone</desc>
  <defs>
    <linearGradient id="bg" x1="0" y1="0" x2="1" y2="1">
      <stop offset="0" stop-color="#17212b"/>
      <stop offset="1" stop-color="#0b0f14"/>
    </linearGradient>
    <linearGradient id="accent" x1="0" y1="0" x2="1" y2="1">
      <stop offset="0" stop-color="#38bdf8"/>
      <stop offset="1" stop-color="#fde047"/>
    </linearGradient>
  </defs>
  <rect width="1200" height="900" fill="url(#bg)"/>
  <g opacity=".08" stroke="#fff">
    <path d="M0 150h1200M0 300h1200M0 450h1200M0 600h1200M0 750h1200"/>
    <path d="M150 0v900M300 0v900M450 0v900M600 0v900M750 0v900M900 0v900M1050 0v900"/>
  </g>
  <g transform="translate(600 450)" stroke-linecap="round" stroke-linejoin="round">
    <path d="M-285-190 285 190M285-190-285 190" stroke="#475569" stroke-width="54"/>
    <path d="M-210-140 210 140M210-140-210 140" stroke="#94a3b8" stroke-width="12"/>
    <g fill="#0f172a" stroke="#64748b" stroke-width="16">
      <circle cx="-310" cy="-210" r="100"/>
      <circle cx="310" cy="-210" r="100"/>
      <circle cx="-310" cy="210" r="100"/>
      <circle cx="310" cy="210" r="100"/>
    </g>
    <g fill="none" stroke="#cbd5e1" stroke-width="8" opacity=".65">
      <circle cx="-310" cy="-210" r="70"/>
      <circle cx="310" cy="-210" r="70"/>
      <circle cx="-310" cy="210" r="70"/>
      <circle cx="310" cy="210" r="70"/>
    </g>
    <rect x="-150" y="-105" width="300" height="210" rx="42" fill="#1e293b" stroke="url(#accent)" stroke-width="10"/>
    <rect x="-75" y="-55" width="150" height="110" rx="28" fill="#020617" stroke="#64748b" stroke-width="8"/>
    <circle cx="0" cy="0" r="28" fill="#38bdf8"/>
    <path d="M-90-115 0-170l90 55" fill="none" stroke="#fde047" stroke-width="12"/>
  </g>
</svg>
