<svg width="64" height="64" viewBox="0 0 64 64" fill="none" xmlns="http://www.w3.org/2000/svg">
  <rect width="64" height="64" fill="#10120D"/>
  <path d="M0 0h64v31H0z" fill="#38BDF8" opacity=".2"/>
  <path d="M0 31h64v33H0z" fill="#FDE047" opacity=".22"/>
  <circle cx="16" cy="16" r="8" stroke="#38BDF8" stroke-width="3"/>
  <circle cx="48" cy="16" r="8" stroke="#FDE047" stroke-width="3"/>
  <circle cx="16" cy="48" r="8" stroke="#FDE047" stroke-width="3"/>
  <circle cx="48" cy="48" r="8" stroke="#38BDF8" stroke-width="3"/>
  <path d="M22 22l7 7M42 22l-7 7M22 42l7-7M42 42l-7-7" stroke="#F8FAFC" stroke-width="3" stroke-linecap="round"/>
  <path d="M32 22l12 10-12 10-12-10 12-10Z" fill="#F8FAFC"/>
  <path d="M32 26l7 6-7 6-7-6 7-6Z" fill="#080A07"/>
  <circle cx="32" cy="32" r="3" fill="#FDE047"/>
</svg>
